<svg id="visual" viewBox="0 0 900 600" width="900" height="600" xmlns="http://www.w3.org/2000/svg" xmlns:xlink="http://www.w3.org/1999/xlink" version="1.1"><rect x="0" y="0" width="900" height="600" fill="#001220"></rect><path d="M0 404L21.5 406.2C43 408.3 86 412.7 128.8 413.3C171.7 414 214.3 411 257.2 405C300 399 343 390 385.8 384.8C428.7 379.7 471.3 378.3 514.2 388C557 397.7 600 418.3 642.8 422.3C685.7 426.3 728.3 413.7 771.2 408C814 402.3 857 403.7 878.5 404.3L900 405L900 601L878.5 601C857 601 814 601 771.2 601C728.3 601 685.7 601 642.8 601C600 601 557 601 514.2 601C471.3 601 428.7 601 385.8 601C343 601 300 601 257.2 601C214.3 601 171.7 601 128.8 601C86 601 43 601 21.5 601L0 601Z" fill="#6d5d6e"></path><path d="M0 443L21.5 436.2C43 429.3 86 415.7 128.8 409.2C171.7 402.7 214.3 403.3 257.2 411.5C300 419.7 343 435.3 385.8 443.3C428.7 451.3 471.3 451.7 514.2 447C557 442.3 600 432.7 642.8 428.5C685.7 424.3 728.3 425.7 771.2 430.8C814 436 857 445 878.5 449.5L900 454L900 601L878.5 601C857 601 814 601 771.2 601C728.3 601 685.7 601 642.8 601C600 601 557 601 514.2 601C471.3 601 428.7 601 385.8 601C343 601 300 601 257.2 601C214.3 601 171.7 601 128.8 601C86 601 43 601 21.5 601L0 601Z" fill="#967d84"></path><path d="M0 502L21.5 499.8C43 497.7 86 493.3 128.8 487.5C171.7 481.7 214.3 474.3 257.2 476C300 477.7 343 488.3 385.8 488.8C428.7 489.3 471.3 479.7 514.2 477.3C557 475 600 480 642.8 480.3C685.7 480.7 728.3 476.3 771.2 475C814 473.7 857 475.3 878.5 476.2L900 477L900 601L878.5 601C857 601 814 601 771.2 601C728.3 601 685.7 601 642.8 601C600 601 557 601 514.2 601C471.3 601 428.7 601 385.8 601C343 601 300 601 257.2 601C214.3 601 171.7 601 128.8 601C86 601 43 601 21.5 601L0 601Z" fill="#b9a09d"></path><path d="M0 541L21.5 537.3C43 533.7 86 526.3 128.8 517.5C171.7 508.7 214.3 498.3 257.2 495.2C300 492 343 496 385.8 504.5C428.7 513 471.3 526 514.2 530.5C557 535 600 531 642.8 531C685.7 531 728.3 535 771.2 534.2C814 533.3 857 527.7 878.5 524.8L900 522L900 601L878.5 601C857 601 814 601 771.2 601C728.3 601 685.7 601 642.8 601C600 601 557 601 514.2 601C471.3 601 428.7 601 385.8 601C343 601 300 601 257.2 601C214.3 601 171.7 601 128.8 601C86 601 43 601 21.5 601L0 601Z" fill="#d7c6bb"></path><path d="M0 535L21.5 540.7C43 546.3 86 557.7 128.8 560.5C171.7 563.3 214.3 557.7 257.2 557C300 556.3 343 560.7 385.8 558.2C428.7 555.7 471.3 546.3 514.2 545.5C557 544.7 600 552.3 642.8 553C685.7 553.7 728.3 547.3 771.2 543.5C814 539.7 857 538.3 878.5 537.7L900 537L900 601L878.5 601C857 601 814 601 771.2 601C728.3 601 685.7 601 642.8 601C600 601 557 601 514.2 601C471.3 601 428.7 601 385.8 601C343 601 300 601 257.2 601C214.3 601 171.7 601 128.8 601C86 601 43 601 21.5 601L0 601Z" fill="#f4eee0"></path></svg>